<?xml version="1.0" standalone="no"?>
<!DOCTYPE svg PUBLIC "-//W3C//DTD SVG 20010904//EN"
 "http://www.w3.org/TR/2001/REC-SVG-20010904/DTD/svg10.dtd">
<svg version="1.0" xmlns="http://www.w3.org/2000/svg"
 width="178.000000pt" height="64.000000pt" viewBox="0 0 178.000000 64.000000"
 preserveAspectRatio="xMidYMid meet">
<metadata>
Created by potrace 1.10, written by Peter Selinger 2001-2011
</metadata>
<g transform="translate(0.000000,64.000000) scale(0.100000,-0.100000)"
fill="#000000" stroke="none">
<path d="M1430 591 c-74 -24 -154 -86 -199 -156 -22 -34 -26 -51 -25 -115 0
-82 8 -102 61 -161 80 -89 262 -92 375 -6 146 111 149 345 5 418 -45 24 -171
35 -217 20z m227 -75 l58 -54 0 -88 c0 -127 -26 -169 -135 -221 -114 -55 -246
-28 -312 64 -73 100 -32 240 90 306 57 31 111 44 189 46 50 1 55 -1 110 -53z"/>
<path d="M1570 401 c-12 -23 -4 -51 15 -51 20 0 37 27 30 50 -8 25 -31 26 -45
1z"/>
<path d="M1344 395 c-4 -8 -3 -27 0 -41 8 -32 40 -29 44 4 6 39 -32 70 -44 37z"/>
<path d="M1522 289 c-38 -34 -77 -38 -92 -9 -12 23 -30 27 -30 6 0 -21 40 -46
72 -46 30 0 109 62 92 73 -5 3 -24 -8 -42 -24z"/>
<path d="M910 435 c-11 -13 -11 -18 2 -31 20 -20 50 -7 46 20 -4 26 -30 32
-48 11z"/>
<path d="M130 322 c0 -137 -10 -162 -64 -162 -31 0 -53 -19 -39 -34 11 -11 64
-6 92 8 42 22 51 55 51 186 0 113 -1 120 -20 120 -19 0 -20 -7 -20 -118z"/>
<path d="M1038 383 c-2 -31 -7 -39 -25 -41 -28 -4 -30 -22 -3 -29 18 -5 20
-14 20 -84 0 -73 2 -80 26 -95 19 -13 32 -15 51 -8 41 14 41 35 1 32 l-33 -3
-3 82 -3 82 37 -6 c32 -5 36 -4 32 13 -3 15 -10 18 -36 16 -31 -3 -32 -3 -32
37 0 55 -27 58 -32 4z"/>
<path d="M268 334 c-16 -8 -28 -19 -28 -24 0 -13 37 -13 45 0 11 18 64 11 75
-9 18 -35 12 -51 -20 -51 -48 0 -98 -25 -105 -53 -15 -58 40 -92 101 -64 31
15 34 15 42 0 18 -31 32 -2 32 66 0 78 -14 127 -40 141 -27 14 -71 12 -102 -6z
m102 -129 c0 -54 -92 -76 -98 -23 -3 23 2 29 30 37 56 16 68 13 68 -14z"/>
<path d="M433 338 c3 -7 22 -53 42 -103 52 -127 66 -140 90 -82 7 17 29 69 49
115 34 80 35 83 14 80 -16 -2 -28 -21 -53 -85 -32 -84 -45 -108 -45 -82 0 8
-13 48 -29 89 -23 59 -34 76 -52 78 -15 3 -20 0 -16 -10z"/>
<path d="M706 334 c-21 -12 -25 -19 -17 -27 9 -9 16 -8 31 1 43 27 90 9 90
-35 0 -19 -5 -23 -31 -23 -95 0 -148 -88 -74 -122 26 -12 31 -11 98 17 12 5
17 3 15 -6 -2 -8 4 -14 12 -14 12 0 15 17 15 93 0 87 -2 95 -24 113 -28 23
-75 24 -115 3z m104 -129 c0 -54 -92 -76 -98 -23 -3 23 2 29 30 37 56 16 68
13 68 -14z"/>
<path d="M910 240 c0 -103 1 -110 20 -110 19 0 20 7 20 110 0 103 -1 110 -20
110 -19 0 -20 -7 -20 -110z"/>
<path d="M20 48 c0 -10 169 -13 825 -12 457 1 825 6 825 10 0 5 -369 10 -825
12 -657 2 -825 0 -825 -10z"/>
</g>
</svg>
