<?xml version="1.0" standalone="no"?>
<!DOCTYPE svg PUBLIC "-//W3C//DTD SVG 20010904//EN"
 "http://www.w3.org/TR/2001/REC-SVG-20010904/DTD/svg10.dtd">
<svg version="1.0" xmlns="http://www.w3.org/2000/svg"
 width="360.000000pt" height="360.000000pt" viewBox="0 0 360.000000 360.000000"
 preserveAspectRatio="xMidYMid meet">

<g transform="translate(0.000000,360.000000) scale(0.100000,-0.100000)"
fill="#000000" stroke="none">
<path d="M1364 3188 c-12 -5 -27 -21 -33 -34 -16 -37 -15 -943 2 -965 31 -41
91 -50 128 -20 l24 19 5 416 5 416 763 0 762 1 0 -1221 0 -1221 -762 1 -763 0
-5 416 -5 416 -24 19 c-37 30 -97 21 -128 -20 -17 -22 -18 -928 -2 -964 6 -14
22 -30 36 -36 17 -8 279 -11 899 -11 l876 0 29 29 29 29 0 1342 0 1342 -29 29
-29 29 -879 -1 c-583 0 -885 -4 -899 -11z"/>
<path d="M1859 2351 c-58 -58 -44 -82 165 -291 l166 -165 -871 -5 -871 -5 -24
-28 c-31 -36 -31 -78 0 -114 l24 -28 871 -5 871 -5 -166 -165 c-209 -209 -223
-233 -165 -291 21 -20 39 -29 63 -29 29 0 58 26 305 273 252 252 273 275 273
307 0 32 -21 55 -273 307 -247 247 -276 273 -305 273 -24 0 -42 -9 -63 -29z"/>
</g>
</svg>
