<?xml version="1.0" standalone="no"?>
<!DOCTYPE svg PUBLIC "-//W3C//DTD SVG 20010904//EN"
 "http://www.w3.org/TR/2001/REC-SVG-20010904/DTD/svg10.dtd">
<svg version="1.0" xmlns="http://www.w3.org/2000/svg"
 width="1200.000000pt" height="1200.000000pt" viewBox="0 0 1200.000000 1200.000000"
 preserveAspectRatio="xMidYMid meet">

<g transform="translate(0.000000,1200.000000) scale(0.100000,-0.100000)"
fill="#000000" stroke="none">
<path d="M5721 9244 c-25 -9 -61 -26 -80 -39 -20 -13 -378 -367 -797 -787
-595 -597 -765 -774 -785 -813 -21 -43 -24 -64 -24 -150 0 -82 4 -109 22 -148
85 -183 299 -265 479 -183 52 24 113 81 494 461 239 239 439 435 443 435 3 0
8 -640 9 -1422 l3 -1423 23 -47 c36 -71 93 -131 164 -168 51 -28 76 -34 140
-38 48 -3 96 1 124 8 70 20 156 82 197 143 71 105 67 7 67 1556 l0 1395 433
-430 c237 -237 448 -440 467 -452 186 -109 426 -33 518 166 21 46 26 72 27
137 0 92 -20 155 -71 225 -18 25 -367 379 -776 787 -840 839 -788 795 -948
800 -59 2 -99 -2 -129 -13z"/>
<path d="M3214 5631 c-123 -32 -221 -127 -258 -251 -14 -47 -16 -150 -16 -826
0 -748 1 -774 20 -838 26 -83 104 -172 188 -213 l57 -28 2610 -3 c2879 -2
2660 -7 2761 60 56 38 116 114 141 178 16 41 18 110 21 800 1 439 -1 780 -7
816 -19 125 -89 222 -199 276 -61 30 -74 33 -162 33 -75 -1 -105 -5 -142 -22
-55 -26 -119 -81 -159 -139 -57 -84 -59 -104 -59 -721 l0 -563 -2172 2 -2172
3 -2 566 c-1 311 -5 581 -9 600 -12 55 -65 147 -108 185 -62 57 -139 87 -227
90 -41 2 -89 0 -106 -5z"/>
</g>
</svg>
